<?xml version="1.0" ?><svg data-name="Layer 1" id="Layer_1" viewBox="0 0 64 64" xmlns="http://www.w3.org/2000/svg"><defs><style>.cls-1{fill:#09816c;}.cls-2{fill:#4fbe9f;}</style></defs><title/><path class="cls-1" d="M48.48,33.71V39a3.24,3.24,0,0,1-3.21,3.25,3.17,3.17,0,0,1-3.11-3.16V34a.91.91,0,0,0-1.23-.85l-2.79,1a.83.83,0,0,1-.64,0l-1.67-.65a.9.9,0,0,0-1.24.84v4.54A10.73,10.73,0,1,0,56,39.05V33.71a.81.81,0,0,0-.82-.82H49.3a.82.82,0,0,0-.82.82Zm0,0"/><path class="cls-2" d="M34.59,24.46V27a.92.92,0,0,0,.58.85l2.38.94a.91.91,0,0,0,.65,0l3.36-1.24a.91.91,0,0,0,.6-.85V24.54a10.16,10.16,0,1,0-20.32-.16V39a3.23,3.23,0,0,1-3.21,3.25,3.17,3.17,0,0,1-3.11-3.16V33.71a.82.82,0,0,0-.82-.82H8.78a.81.81,0,0,0-.82.82v5.17a10.73,10.73,0,1,0,21.45.17V24.38a2.6,2.6,0,0,1,2.72-2.59,2.64,2.64,0,0,1,2.46,2.67Zm0,0"/></svg>